<?xml version="1.0" encoding="utf-8"?>
<svg xmlns="http://www.w3.org/2000/svg" height="48" width="48" viewBox="0 0 48 48">
  <g>
    <path id="path1" transform="rotate(0,24,24) translate(11,11) scale(0.8125,0.8125)  " d="M16.421997,16.385C17.142998,16.585001 17.664001,16.800001 17.969002,17.015001 18.506996,17.395002 18.771996,17.950002 18.771996,18.67 18.771996,19.134001 18.671997,19.529001 18.474998,19.884001 18.101997,20.564003 17.416,20.929004 16.421997,20.969002z M15.572998,10.215002L15.572998,14.523001C14.892998,14.383001 14.353996,14.148001 13.945999,13.808 13.535995,13.464002 13.335999,12.994001 13.335999,12.389002 13.335999,11.889002 13.508995,11.409002 13.849998,10.950002 14.188995,10.495001 14.764,10.250002 15.572998,10.215002z M15.594002,8.0449989L15.594002,9.2040003C14.427002,9.2189997 13.527,9.574003 12.872002,10.284002 12.225998,10.989 11.903999,11.784002 11.903999,12.669 11.903999,13.654001 12.202995,14.434 12.806999,14.989 13.402,15.544 14.335999,15.939001 15.594002,16.179003L15.594002,20.928005C14.609001,20.843002 13.940002,20.483003 13.574997,19.818002 13.375999,19.453001 13.244995,18.873003 13.194,18.078001L11.665001,18.078001C11.665001,19.073 11.820999,19.868002 12.152,20.453001 12.754997,21.538002 13.905998,22.143005 15.594002,22.253002L15.594002,23.938003 16.421997,23.938003 16.421997,22.253002C17.473,22.133003 18.276001,21.898002 18.829002,21.538002 19.838997,20.883003 20.343002,19.788 20.334999,18.248003 20.334999,17.168001 19.946999,16.368002 19.160995,15.824003 18.681,15.489 17.769997,15.134001 16.421997,14.764002L16.421997,10.519003C17.216995,10.544 17.803001,10.859003 18.167999,11.434 18.366997,11.759001 18.489998,12.139002 18.531998,12.579L20.046997,12.579C20.020996,11.594 19.698997,10.809 19.079002,10.204 18.465996,9.6090029 17.581001,9.2690027 16.421997,9.1890009L16.421997,8.0449989z M16.000999,4.2949989C22.459999,4.2949989 27.700996,9.5390032 27.700996,15.999002 27.700996,22.453003 22.459999,27.697002 16.000999,27.697002 9.5400009,27.697002 4.298996,22.453003 4.298996,15.999002 4.298996,9.5390032 9.5299988,4.2949989 16.000999,4.2949989z M16.000999,1.5799985C8.052002,1.5799984 1.5839996,8.05 1.5839996,16.000002 1.5839996,23.945003 8.052002,30.415001 16.000999,30.415001 23.948997,30.415001 30.415001,23.945003 30.415001,16.000002 30.415001,8.05 23.948997,1.5799984 16.000999,1.5799985z M16.000999,0C24.822998,2.0636321E-07 32,7.1750005 32,16.000002 32,24.820003 24.822998,32 16.000999,32 7.1780014,32 0,24.820003 0,16.000002 0,7.1750005 7.1780014,2.0636321E-07 16.000999,0z" />
  </g>
</svg>

