<?xml version="1.0" encoding="utf-8"?>
<svg xmlns="http://www.w3.org/2000/svg" height="48" width="48" viewBox="0 0 48 48">
  <g>
    <path id="path1" transform="rotate(0,24,24) translate(11.0008112285329,11) scale(0.812449637197096,0.812449637197096)  " fill="#FFFFFF" d="M22.854972,19.412021C23.271966,19.412021 23.610961,19.750022 23.610961,20.168024 23.610961,20.586025 23.271966,20.924028 22.854972,20.924028 22.436979,20.924028 22.098985,20.586025 22.098985,20.168024 22.098985,19.750022 22.436979,19.412021 22.854972,19.412021z M22.226959,17.795007C20.918958,17.795007 19.854959,18.859008 19.854959,20.168006 19.854959,21.477006 20.918958,22.541006 22.226959,22.541006L29.96936,22.541006 29.953679,17.795007z M2.1950511,8.8539195C2.2120188,13.688922 2.240034,24.470962 2.1760689,26.924978 2.1240674,28.963983 3.7560223,29.802974 4.2290438,30.001979L29.994008,30.001979 29.972663,23.541006 22.226959,23.541006C20.367959,23.541006 18.854959,22.028007 18.854959,20.168006 18.854959,18.308008 20.367959,16.795007 22.226959,16.795007L29.950376,16.795007 29.926017,9.4219137C25.346008,9.4279256 6.9900249,9.4579254 5.3270644,9.439919 4.42106,9.4319234 3.2300223,9.3479391 2.1950511,8.8539195z M18.859022,2.0029204C14.044028,2.0029204 8.6300367,2.0459199 6.3010615,2.1399143 5.0340351,2.1919163 2.0740186,2.5728987 2.0030349,4.9769268 1.9790481,5.7349239 2.1420118,6.2849131 2.4990665,6.6569233 2.9920467,7.1699253 3.923014,7.4269143 5.3460463,7.4399147 6.6520127,7.455906 18.768995,7.4399147 25.846008,7.4279213L26.789976,2.062918C25.260986,2.0239168,22.205022,2.0029204,18.859022,2.0029204z M21.301263,8.9476089E-08C28.680154,-9.7636677E-05,28.710163,0.079730608,28.934015,0.86091957L29.148979,1.6179097 28.870965,1.7769066 27.877986,7.4249306C29.697013,7.4219094,30.869985,7.4199257,30.921987,7.4199257L31.921008,7.4179116 31.999986,32.001985 3.7360641,31.952974C2.470014,31.540985 0.097032671,29.949977 0.17607306,26.873983 0.25602894,23.781965 0.18705935,6.6959248 0.18602194,6.5239272L0.18907342,6.5239272C0.047044975,6.0409246 -0.014966628,5.5049124 0.0030386363,4.9159217 0.088060518,2.0829072 2.4130684,0.29789937 6.2200068,0.14189322 8.5550245,0.046891708 14.205038,0.0029157729 18.766981,0.0019085101 19.695953,0.0008758586 20.537931,1.0397087E-05 21.301263,8.9476089E-08z" />
  </g>
</svg>

