<?xml version="1.0" encoding="utf-8"?>
<svg xmlns="http://www.w3.org/2000/svg" height="48" width="48" viewBox="0 0 48 48">
  <g>
    <path id="path1" transform="rotate(0,24,24) translate(11,14.0468742251396) scale(0.8125,0.8125)  "  d="M2,11.5L2,22.500001 30,22.500001 30,11.5z M9.5,4.5L9.5,7.0000005 6.5,7.0000005 6.5,4.500001 2,4.500001 2,9.5000005 30,9.5000005 30,4.500001 25.5,4.500001 25.5,7.0000005 22.5,7.0000005 22.5,4.5z M6.5,0L9.5,0 9.5,2.5 22.5,2.5 22.5,4.7683716E-07 25.5,4.7683716E-07 25.5,2.500001 30,2.500001C31.102966,2.500001,32,3.3970041,32,4.500001L32,22.500001C32,23.603013,31.102966,24.500001,30,24.500001L2,24.500001C0.89697266,24.500001,0,23.603013,0,22.500001L0,4.500001C0,3.3970041,0.89697266,2.500001,2,2.500001L6.5,2.500001z" />
  </g>
</svg>

