<?xml version="1.0" encoding="utf-8"?>
<svg xmlns="http://www.w3.org/2000/svg" height="48" width="48" viewBox="0 0 48 48">
  <g>
    <path id="path1" transform="rotate(0,24,24) translate(11,11) scale(0.8125,0.8125)  " fill="#ADADAD" d="M14.246002,23.394012L16.850006,23.394012 16.850006,26.235001 14.246002,26.235001z M15.785995,5.7660065C17.520004,5.7660065 18.862,6.2390137 19.809006,7.1880035 20.833008,8.2109985 21.347,9.5140076 21.347,11.090012 21.347,12.432007 20.872009,13.575012 19.927002,14.522003 19.374008,15.075012 18.624008,15.825012 17.677002,16.768005 16.970001,17.479004 16.613998,18.546005 16.613998,19.964005L14.483002,19.964005C14.483002,18.229004 14.759003,16.92601 15.311005,16.061005 15.706009,15.430008 16.456009,14.561005 17.559006,13.456009 18.190002,12.827011 18.507004,12.077011 18.507004,11.208008 18.507004,10.106003 18.229004,9.276001 17.677002,8.7230072 17.20401,8.25 16.535995,8.0140076 15.667007,8.0140076 14.956009,8.0140076 14.363998,8.25 13.893005,8.7230072 13.104004,9.5140076 12.710007,10.695999 12.710007,12.274002L9.9869995,12.274002C9.9869995,10.223007 10.658997,8.526001 11.999008,7.1880035 12.945999,6.2390137 14.208008,5.7660065 15.785995,5.7660065z M16,3.131012C8.8910065,3.131012 3.1290054,8.8930054 3.1290054,16 3.1290054,23.108002 8.8910065,28.869003 16,28.869003 23.104996,28.869003 28.867004,23.108002 28.867004,16 28.867004,8.8930054 23.104996,3.131012 16,3.131012z M16,0C24.820007,0 32,7.178009 32,16 32,24.822006 24.820007,32 16,32 7.1760025,32 0,24.822006 0,16 0,7.178009 7.1760025,0 16,0z" />
  </g>
</svg>

