<?xml version="1.0" encoding="utf-8"?>
<svg xmlns="http://www.w3.org/2000/svg" height="48" width="48" viewBox="0 0 48 48">
  <g>
    <path id="path1" transform="rotate(0,24,24) translate(12.1374996900558,11) scale(0.8125,0.8125)  " d="M9.6999674,17.900024L19.500033,17.900024C24.900004,17.900024 29.2,22 29.2,27.100006 29.2,28.900024 28.7,30.600006 27.699998,32L1.5000024,32C0.50000076,30.600006 -4.9178198E-08,28.900024 0,27.100006 -4.9178198E-08,22 4.299995,17.900024 9.6999674,17.900024z M14.699976,0C18.800019,0 22.100013,3.3000183 22.100013,7.4000244 22.100013,11.5 18.800019,14.800018 14.699976,14.800018 10.599993,14.800018 7.2999998,11.5 7.2999998,7.4000244 7.3999758,3.3000183 10.699969,0 14.699976,0z" />
  </g>
</svg>

