<?xml version="1.0" encoding="utf-8"?>
<svg xmlns="http://www.w3.org/2000/svg" height="48" width="48" viewBox="0 0 48 48">
  <g>
    <path id="path1" transform="rotate(0,24,24) translate(11,11) scale(0.8125,0.8125)  " d="M24.13891,17L24.133976,17.043036C23.66819,20.696312,20.789257,23.605963,17.151492,24.119413L17,24.137201 17,26.954422 17.053709,26.949936C22.256411,26.453129,26.413986,22.316376,26.943096,17.123017L26.954056,17z M5.0459433,17L5.0569029,17.123016C5.5860147,22.316376,9.7435904,26.453129,14.946291,26.949936L15,26.954422 15,24.137201 14.848508,24.119413C11.210744,23.605963,8.3318095,20.696312,7.8660235,17.043036L7.8610888,17z M15.999983,13C17.656983,13 18.999983,14.343 18.999983,16 18.999983,17.657 17.656983,19 15.999983,19 14.342983,19 12.999983,17.657 12.999983,16 12.999983,14.343 14.342983,13 15.999983,13z M15,9.8819594L14.903843,9.8969984C12.412655,10.343134,10.432847,12.282045,9.9261827,14.751965L9.8817744,15 11,15C11.552,15 12,15.448 12,16 12,16.552 11.552,17 11,17L9.8817749,17 9.9261827,17.248032C10.432847,19.717951,12.412655,21.656862,14.903843,22.102999L15,22.118036 15,21C15,20.448 15.448,20 16,20 16.552,20 17,20.448 17,21L17,22.118 17.095897,22.102999C19.586626,21.656862,21.566957,19.717951,22.073776,17.248032L22.118198,17 21,17C20.448,17 20,16.552 20,16 20,15.448 20.448,15 21,15L22.118198,15 22.073776,14.751965C21.566957,12.282045,19.586626,10.343134,17.095897,9.8969984L17,9.8819971 17,11C17,11.552 16.552,12 16,12 15.448,12 15,11.552 15,11z M17,5.0455785L17,7.8628101 17.151492,7.8806038C20.789257,8.3941798,23.66819,11.304471,24.133976,14.957159L24.138889,15 26.954056,15 26.943096,14.876983C26.413986,9.6836238,22.256411,5.5468709,17.053709,5.0500636z M15,5.0455785L14.946291,5.0500636C9.7435904,5.5468709,5.5860147,9.6836238,5.0569029,14.876983L5.0459433,15 7.8611107,15 7.8660235,14.957158C8.3318095,11.304471,11.210744,8.3941798,14.848508,7.8806038L15,7.8628101z M16,0C16.552,0,17,0.44799995,17,1L17,3.0386771 17.24534,3.0591631C23.39419,3.6462743,28.30747,8.5349679,28.932755,14.672754L28.961906,15 31,15C31.552,15 32,15.448 32,16 32,16.552 31.552,17 31,17L28.961906,17 28.932755,17.327246C28.30747,23.465033,23.39419,28.353725,17.24534,28.940836L17,28.961323 17,31C17,31.552 16.552,32 16,32 15.448,32 15,31.552 15,31L15,28.961323 14.75466,28.940836C8.6058102,28.353725,3.6925297,23.465033,3.067246,17.327246L3.0380931,17 1,17C0.44799995,17 0,16.552 0,16 0,15.448 0.44799995,15 1,15L3.0380931,15 3.067246,14.672753C3.6925297,8.5349679,8.6058102,3.6462743,14.75466,3.0591631L15,3.0386771 15,1C15,0.44799995,15.448,0,16,0z" />
  </g>
</svg>

